<?xml version="1.0" ?><!DOCTYPE svg  PUBLIC '-//W3C//DTD SVG 1.1//EN'  'http://www.w3.org/Graphics/SVG/1.1/DTD/svg11.dtd'><svg height="512px" style="enable-background:new 0 0 512 512;" version="1.1" viewBox="0 0 512 512" width="512px" xml:space="preserve" xmlns="http://www.w3.org/2000/svg" xmlns:xlink="http://www.w3.org/1999/xlink"><g id="_x31_42_x2C__VR_x2C__googles_x2C__headset_x2C__reality_x2C__virtual_x2C_"><g><path d="M408.727,70.191v93.896h15.621V70.191H408.727z M119.417,100.652h197.831    c0.652-0.805,1.365-1.61,2.109-2.354c1.053-1.085,2.229-2.045,3.439-2.913l0,0l0.245-0.154l0,0l0.685-0.465l0,0l0.246-0.155l0,0    l0.498-0.31l0,0l0.463-0.279l0,0l0.495-0.279l0,0l0.249-0.123v-0.031l0.249-0.125l0,0l0.277-0.123l0,0l0.249-0.123l0,0    l0.246-0.125l0,0l0.249-0.124l0,0l0.277-0.124l0,0l0.249-0.124l0,0l0.281-0.093l0,0l0.245-0.124l0,0l0.28-0.093l0,0l0.246-0.124    l0,0l0.281-0.093l0,0l0.277-0.094l0,0l0.248-0.092v-0.031l0.277-0.063v-0.031l0.281-0.062v-0.03l0.277-0.063l0,0l0.281-0.094l0,0    l0.276-0.093l0,0l0.281-0.062l0,0l0.276-0.093l0,0l0.281-0.062l0.277-0.063l0,0l0.281-0.094l0,0l0.277-0.061l0,0l0.28-0.063    l0.277-0.063l0,0l0.309-0.031v-0.03l0.28-0.03l0,0l0.277-0.063l0,0l0.313-0.031l0,0l0.277-0.063l0,0l0.309-0.03l0,0l0.281-0.032    l0,0l0.309-0.03l0,0l0.281-0.03l0,0l10.223-25.629c0.063-0.154,0.158-0.34,0.25-0.495l0.031-0.063    c-12.49-11.403-26.929-20.731-42.795-27.3c-17.292-7.19-36.257-11.125-56.152-11.125c-40.471,0-77.1,16.393-103.628,42.919    C134.136,78.311,125.987,89.002,119.417,100.652z M254.186,170.254c19.274,0,36.724,7.809,49.364,20.483    c12.646,12.612,20.485,30.06,20.485,49.366c0,19.274-7.84,36.752-20.485,49.396c-12.609,12.644-30.09,20.452-49.364,20.452    c-19.306,0-36.751-7.84-49.396-20.452c-12.642-12.644-20.454-30.121-20.454-49.396c0-19.275,7.812-36.754,20.454-49.396    C217.434,178.063,234.88,170.254,254.186,170.254z M313.064,108.276H115.42c-9.482,19.399-14.813,41.215-14.813,64.239    c0,20.732,4.306,40.44,12.023,58.259c8.026,18.501,19.801,35.079,34.365,48.715c0.807,0.774,1.21,1.858,1.179,2.913l0.867,143.168    l163.869,28.045v-95.291c0-2.075,1.705-3.811,3.811-3.811l0.527,0.061c32.354,1.984,50.975,2.604,60.738-6.477    c9.946-9.265,12.273-29.563,12.242-69.631c0-1.735,1.207-3.223,2.817-3.656c4.618-1.271,9.328-3.006,14.102-5.33    c3.997-1.953,8.117-4.369,12.301-7.314l-28.199-59.064c-0.372-0.773-0.432-1.642-0.277-2.447l6.384-28.975h-48.003h-0.091h-0.063    h-0.095h-0.06h-0.095l-0.092-0.031h-0.063h-0.092l-0.063-0.031h-0.096l0,0l-0.059-0.031h-0.063l-0.091-0.031l-0.063-0.03h-0.091    l-0.064-0.03l-0.063-0.031l-0.092-0.031l-0.063-0.031l-0.063-0.031l0,0l-0.091-0.031l-0.063-0.03l-0.06-0.031l0,0l-0.063-0.03l0,0    l-0.063-0.031l-0.059-0.063l-0.063-0.03l-0.063-0.032h-0.031l-0.061-0.03l0,0l-0.063-0.063l0,0l-0.063-0.03l-0.028-0.063h-0.031    l-0.031-0.031h-0.031l-0.032-0.063l-0.06-0.029l0,0l-0.063-0.063l-0.064-0.031l0,0l-0.031-0.062h-0.027l-0.032-0.062l0,0    l-0.063-0.063l-0.059-0.031l0,0l-0.032-0.063l-0.063-0.061l-0.031-0.063h-0.031l-0.028-0.063l-0.032-0.062l-0.063-0.063    l-0.031-0.062l-0.061-0.063l-0.031-0.063l0,0l-0.031-0.061l0,0l-0.063-0.063l-0.031-0.063l-0.028-0.061l-0.031-0.063l-0.031-0.094    l0,0l-0.032-0.063l0,0l-0.032-0.061l0,0l-0.031-0.063l-0.027-0.094l-0.032-0.061l-0.031-0.063v-0.094l-0.032-0.062l-10.1-25.287    l0,0l-0.281-0.03h-0.031l-0.277-0.031l0,0l-0.281-0.031h-0.031l-0.277-0.031l0,0l-0.277-0.062l0,0l-0.28-0.03h-0.032l-0.277-0.063    l0,0l-0.28-0.063l0,0l-0.277-0.031h-0.031l-0.277-0.061l0,0l-0.28-0.063l0,0l-0.277-0.063v-0.031l-0.281-0.061l0,0l-0.277-0.063    h-0.031l-0.25-0.063h-0.031l-0.245-0.094h-0.032l-0.249-0.061h-0.031l-0.245-0.094l0,0l-0.281-0.092l0,0l-0.277-0.094l0,0    l-0.281-0.093l0,0l-0.245-0.093h-0.032l-0.248-0.094l-0.277-0.093l0,0l-1.053-0.433h-0.032l-0.498-0.219l0,0    c-1.485-0.682-2.882-1.456-4.184-2.385l0,0c-1.33-0.899-2.541-1.922-3.685-3.068l-0.158-0.186l-0.028-0.031l-0.031-0.031    l-0.218-0.187v-0.03l-0.218-0.217l0,0l-0.218-0.248l0,0l-0.214-0.217v-0.031l-0.403-0.465l0,0l-0.218-0.248l0,0l-0.187-0.248l0,0    l-0.186-0.248h-0.031l-0.186-0.247l0,0l-0.187-0.249l0,0l-0.372-0.495l-0.031-0.03l-0.154-0.217l-0.032-0.063l-0.154-0.217    l-0.032-0.031l-0.122-0.217l-0.032-0.063l-0.154-0.217l-0.031-0.062l-0.123-0.187l-0.063-0.063l-0.123-0.216l-0.031-0.063    l-0.123-0.217l-0.031-0.062l-0.123-0.217l-0.032-0.063l-0.122-0.187l-0.064-0.092l-0.094-0.187l-0.061-0.093l-0.094-0.187    l-0.061-0.092l-0.094-0.217l-0.032-0.094l-0.091-0.186l-0.063-0.094l-0.091-0.186l-0.063-0.093l-0.063-0.187l-0.06-0.123    l-0.095-0.156l-0.06-0.123l-0.063-0.186l-0.063-0.124l-0.061-0.155l-0.063-0.124l-0.063-0.187l-0.06-0.124l-0.063-0.154    l-0.064-0.155l-0.059-0.154l-0.063-0.155l-0.063-0.124l-0.031-0.155l-0.06-0.154l-0.063-0.155l-0.063-0.155l-0.029-0.154    l-0.063-0.155l-0.063-0.154l-0.028-0.156l-0.063-0.186l-0.031-0.093l-0.063-0.217l-0.028-0.093l-0.063-0.217l-0.032-0.094    l-0.063-0.217l-0.027-0.124l-0.063-0.187v-0.123l-0.063-0.217l-0.031-0.093l-0.06-0.217v-0.093l-0.063-0.218l-0.031-0.093    l-0.031-0.248l-0.029-0.093l-0.031-0.217l-0.031-0.093l-0.031-0.248l-0.032-0.063l-0.031-0.248v-0.092l-0.06-0.249v-0.062    l-0.031-0.279l-0.032-0.063l-0.031-0.278v-0.03l-0.032-0.279v-0.062l-0.027-0.278v-0.063l-0.031-0.279v-0.031l-0.032-0.31v-0.031    l-0.032-0.31v-0.031l-0.031-0.31l0,0v-0.341l0,0v-0.341l0,0l-0.031-0.341l0,0v-0.342v-0.34l0,0l0.031-0.342v-0.34v-0.342    l0.031-0.34l0,0l0.032-0.342l0,0l0.032-0.341l0,0l0.031-0.341l0,0l0.027-0.341l0.032-0.31v-0.031l0.063-0.311l0,0l0.031-0.34l0,0    l0.06-0.311v-0.031l0.063-0.31l0,0l0.063-0.341l0,0l0.061-0.311l0,0l0.063-0.34l0,0l0.063-0.311l0,0l0.091-0.31v-0.03l0.063-0.311    l0,0l0.091-0.31l0,0l0.096-0.311v-0.03l0.091-0.279v-0.031l0.095-0.309l0,0l0.091-0.311l0,0l0.126-0.311l0,0L313.064,108.276    L313.064,108.276z M289.049,263.469c-2.79,4.709,3.997,8.149,6.353,4.245c1.551-2.263,2.85-4.711,3.997-7.19    c2.015-5.082-5.236-7.406-6.942-3.16C291.467,259.502,290.41,261.516,289.049,263.469z M267.202,280.017    c-5.208,2.106-1.737,8.893,2.387,7.251c2.572-0.807,5.204-1.983,7.591-3.223c4.741-2.82,0.309-9.049-3.563-6.725    C271.631,278.374,269.34,279.365,267.202,280.017z M212.443,235.516c0.372-1.92-1.393-3.78-3.036-4.121    c-2.541-0.402-4.092,1.146-4.555,3.347c-0.218,2.852-0.34,5.362-0.186,8.243c0,4.432,7.591,5.113,7.591-0.465    C212.103,240.133,212.258,237.871,212.443,235.516z M224.127,210.756c1.456-1.426,1.456-3.873,0.031-5.299    c-1.551-1.549-3.934-1.549-5.454-0.031c-1.951,2.016-3.657,4.091-5.268,6.385c-2.667,4.462,3.316,8.273,6.257,4.307    C220.965,214.258,222.547,212.398,224.127,210.756z M298.191,196.098c-11.252-11.279-26.838-18.221-44.006-18.221    c-17.196,0-32.754,6.973-44.002,18.221c-11.251,11.25-18.222,26.837-18.222,44.006c0,17.167,6.97,32.723,18.222,44.003    c11.248,11.249,26.806,18.222,44.002,18.222c17.168,0,32.726-6.973,44.006-18.222c11.248-11.249,18.221-26.836,18.221-44.003    C316.412,222.935,309.439,207.348,298.191,196.098z M287.312,391.792c2.046,0.403,3.38,2.417,2.977,4.462    c-0.404,2.047-2.419,3.379-4.461,2.976L179.286,377.6c-2.074-0.402-3.408-2.417-2.972-4.462c0.4-2.046,2.383-3.378,4.46-2.976    L287.312,391.792z M287.312,415.84c2.046,0.434,3.38,2.418,2.977,4.463c-0.404,2.075-2.419,3.408-4.461,2.974l-106.542-21.599    c-2.074-0.434-3.408-2.418-2.972-4.463c0.4-2.075,2.383-3.408,4.46-2.974L287.312,415.84z M394.162,478.375    c2.109,0,3.811,1.705,3.811,3.812c0,2.107-1.701,3.813-3.811,3.813H183.224c-2.109,0-3.812-1.705-3.812-3.813    c0-2.106,1.702-3.812,3.812-3.812H394.162z M270.642,462.633c2.105,0,3.812,1.704,3.812,3.812s-1.706,3.812-3.812,3.812H124.653    c-2.078,0-3.811-1.704-3.811-3.812s1.733-3.812,3.811-3.812H270.642z M109.717,462.633c2.106,0,3.812,1.704,3.812,3.812    s-1.706,3.812-3.812,3.812H91.464c-2.105,0-3.811-1.704-3.811-3.812s1.706-3.812,3.811-3.812H109.717z M402.469,463.129    c2.105,0,3.812,1.704,3.812,3.812c0,2.075-1.706,3.812-3.812,3.812h-69.168c-2.106,0-3.813-1.736-3.813-3.812    c0-2.107,1.706-3.812,3.813-3.812H402.469z M401.104,70.191h-47.381h-0.092h-1.705l-10.041,25.163h-0.031v0.062l0,0l-0.032,0.093    l0,0l-0.028,0.063l0,0l-0.031,0.062l0,0v0.093h-0.031v0.062h-0.032v0.063h-0.031l-0.032,0.063l0,0l-0.027,0.062v0.03l-0.031,0.063    l0,0l-0.032,0.063l0,0l-0.031,0.062l0,0l-0.032,0.063l0,0l-0.059,0.062l0,0l-0.032,0.063l0,0l-0.032,0.063l0,0l-0.063,0.061l0,0    l-0.031,0.063l0,0l-0.061,0.063l0,0l-0.031,0.061l0,0l-0.063,0.063l0,0l-0.032,0.063l0,0l-0.06,0.031v0.03l-0.063,0.032l0,0    l-0.032,0.061l0,0l-0.06,0.063l0,0l-0.063,0.031v0.031l-0.063,0.031l0,0l-0.031,0.062h-0.027l-0.032,0.03l0,0l-0.063,0.063l0,0    l-0.059,0.031l0,0l-0.064,0.062l0,0l-0.063,0.031l0,0l-0.06,0.03v0.031l-0.063,0.031l0,0l-0.063,0.031l0,0l-0.061,0.03v0.032    l-0.063,0.03l0,0l-0.063,0.03h-0.031l-0.06,0.032l0,0l-0.063,0.03l0,0l-0.063,0.031l0,0l-0.06,0.031l0,0l-0.095,0.031l0,0    l-0.06,0.03l0,0l-0.063,0.032l0,0l-0.063,0.029h-0.031l-0.061,0.031l0,0h-0.063l0,0l-0.092,0.031l0,0l-0.063,0.031l0,0h-0.096l0,0    l-0.059,0.031l0,0h-0.064h-0.031l-0.06,0.03l0,0h-0.063h-0.031h-0.06v0.031h-0.063H338.6h-0.063l0,0h-0.092l0,0h-0.063l0,0h-0.091    l-0.095,0.03h-0.218h-0.246l0,0h-0.249l0,0h-0.245l0,0l-0.25,0.031l0,0h-0.248l0,0l-0.219,0.031h-0.027l-0.218,0.031l0,0h-0.249    v0.031h-0.246l0,0l-0.217,0.031l0,0l-0.25,0.03v0.03l-0.249,0.032l0,0l-0.214,0.03l0,0l-0.249,0.031v0.031l-0.218,0.031l0,0    l-0.246,0.03v0.032l-0.217,0.03l0,0l-0.25,0.062l0,0l-0.217,0.063l0,0l-0.218,0.063l0,0l-0.246,0.061l0,0l-0.218,0.063l0,0    l-0.217,0.063l0,0l-0.218,0.061l0,0l-0.214,0.094l0,0l-0.25,0.063l0,0l-0.217,0.093l0,0l-0.218,0.062l0,0l-0.214,0.094l0,0    l-0.218,0.092l0,0l-0.218,0.094l0,0l-0.186,0.092h-0.032l-0.187,0.094l0,0l-0.217,0.093l0,0l-0.218,0.093l0,0l-0.214,0.094v0.031    l-0.186,0.093l0,0l-0.219,0.093l0,0l-0.186,0.124l0,0l-0.217,0.093l0,0l-0.187,0.124l0,0l-0.218,0.124l0,0l-0.186,0.125l0,0    l-0.187,0.092l0,0l-0.214,0.124l0,0l-0.186,0.124l-0.187,0.123v0.032l-0.187,0.124l0,0l-0.186,0.123l0,0l-0.186,0.125l0,0    l-0.187,0.154l0,0l-0.187,0.123l-0.186,0.156l0,0l-0.186,0.123l-0.154,0.156l0,0l-0.187,0.154l0,0l-0.187,0.124l0,0l-0.157,0.154    l-0.187,0.155l-0.154,0.155l-0.154,0.155l-0.186,0.154l-0.154,0.187l-0.154,0.154L324.439,104l0,0l-0.155,0.154l0,0l-0.157,0.186    l-0.154,0.156l0,0l-0.155,0.186l0,0l-0.154,0.155l0,0l-0.154,0.185l-0.123,0.187l0,0l-0.157,0.155l-0.123,0.186l0,0l-0.154,0.187    l-0.123,0.187l-0.127,0.186l0,0l-0.154,0.186l-0.123,0.186l0,0l-0.126,0.186v0.032l-0.122,0.187l-0.123,0.186l-0.123,0.186l0,0    l-0.127,0.217l0,0l-0.091,0.186l0,0l-0.126,0.187l-0.123,0.217l-0.092,0.217l-0.313,0.589v0.031l-0.091,0.186l-0.126,0.217l0,0    l-0.187,0.434l0,0l-0.06,0.217l0,0l-0.095,0.218l0,0l-0.091,0.217l-0.096,0.217l0,0l-0.213,0.651l0,0l-0.127,0.434v0.031    l-0.092,0.217l0,0l-0.063,0.217l0,0l-0.092,0.465l0,0l-0.126,0.465l0,0l-0.031,0.217l0,0l-0.06,0.247l-0.031,0.218l-0.064,0.248    l0,0l-0.031,0.216l-0.027,0.249l0,0l-0.032,0.248l0,0l-0.031,0.217l0,0l-0.032,0.247v0.249l0,0l-0.031,0.246l-0.031,0.249v0.217    v0.248l-0.028,0.247v0.248v0.248v0.248l0,0v0.248l0,0l0.028,0.217v0.031v0.217v0.031v0.217v0.031l0.031,0.186v0.031v0.217    l0.031,0.031v0.217v0.031l0.032,0.186v0.063l0.031,0.186v0.03l0.032,0.187v0.063l0.027,0.186v0.063l0.031,0.154v0.063l0.032,0.186    l0.032,0.062l0.031,0.155v0.063l0.031,0.186l0.028,0.062l0.031,0.155v0.062l0.032,0.155l0.031,0.094l0.031,0.154l0.031,0.062    l0.029,0.155v0.094l0.063,0.123v0.094l0.063,0.123v0.094l0.061,0.124l0.031,0.092l0.031,0.155l0.032,0.094l0.031,0.123    l0.032,0.094l0.027,0.124l0.031,0.093l0.063,0.124l0.032,0.093l0.031,0.124l0.027,0.093l0.064,0.123l0.031,0.094l0.031,0.093    l0.06,0.124l0.032,0.093l0.031,0.124l0.063,0.094l0.028,0.123l0.063,0.094l0.123,0.34l0.031,0.063l0.218,0.435l0.063,0.124    l0.031,0.061l0.092,0.219l0.094,0.123l0.028,0.063l0.063,0.154l0.031,0.063l0.092,0.123l0.031,0.063l0.186,0.341l0.032,0.062    l0.095,0.156l0.027,0.03l0.096,0.154v0.032l0.123,0.154v0.031l0.122,0.154v0.031l0.126,0.187l0,0l0.123,0.185l0,0l0.123,0.187    h0.031l0.096,0.187h0.031l0.123,0.186l0,0l0.154,0.186l0.123,0.156l0,0l0.126,0.186l0,0l0.154,0.186l0,0l0.432,0.496v0.031    l0.313,0.309v0.032l0.309,0.278l0.187,0.186c1.302,1.303,2.758,2.418,4.4,3.285l0,0c0.404,0.217,0.804,0.434,1.238,0.62l0,0    l0.622,0.278l0,0l0.432,0.155v0.03l0.218,0.063l0,0l0.681,0.217v0.031l0.435,0.124l0,0c0.464,0.124,0.898,0.247,1.365,0.341l0,0    l0.246,0.063l0,0l0.218,0.03l0,0l0.249,0.062l0,0l0.214,0.031l0,0l0.249,0.031l0,0l0.25,0.031v0.031h0.217v0.031h0.246l0,0    l0.249,0.03l0,0l0.218,0.03h0.027l0.219,0.032l0,0h0.248l0,0l0.495,0.03l0,0h0.249l0,0h0.246h0.218l0.095,0.031h0.06l0,0h0.063    l0,0h0.094l0,0h0.061l0,0h0.063l0,0l0.063,0.031l0,0h0.06h0.031h0.063l0,0l0.06,0.031l0,0h0.063l0,0l0.063,0.03h0.027h0.063l0,0    l0.063,0.03l0,0h0.06v0.032h0.063l0,0l0.063,0.03l0,0l0.061,0.031h0.031h0.031h0.031l0.063,0.031l0,0l0.06,0.031l0,0l0.063,0.03    l0,0l0.063,0.031l0,0l0.059,0.03l0,0l0.064,0.031l0,0l0.063,0.031l0,0l0.06,0.031l0,0l0.063,0.031l0,0l0.063,0.031l0,0l0.061,0.03    l0,0l0.063,0.03l0,0l0.031,0.063h0.032l0.028,0.031l0,0l0.063,0.031l0,0l0.063,0.031v0.03l0.06,0.032l0,0l0.063,0.03l0,0    l0.031,0.062l0,0l0.06,0.031l0,0l0.063,0.062l0,0l0.031,0.032h0.032l0.031,0.061l0,0l0.06,0.031v0.031l0.032,0.031l0,0    l0.063,0.062l0,0l0.031,0.03l0,0l0.061,0.063l0,0l0.031,0.063l0,0l0.063,0.062l0,0l0.032,0.063l0,0l0.028,0.03h0.031l0.031,0.063    l0,0l0.031,0.062l0,0l0.064,0.063l0,0l0.027,0.062l0,0l0.031,0.063l0,0l0.032,0.063l0,0l0.031,0.062l0,0l0.032,0.062l0,0    l0.031,0.063v0.03l0.027,0.063l0,0l0.032,0.063h0.031v0.062h0.032v0.063l0,0l10.195,25.503h49.178V70.191z" style="fill-rule:evenodd;clip-rule:evenodd;"/></g></g><g id="Layer_1"/></svg>